<svg xmlns="http://www.w3.org/2000/svg" viewBox="0 0 1024 1024">
  <defs>
    <linearGradient id="bg" x1="130" y1="82" x2="894" y2="942" gradientUnits="userSpaceOnUse">
      <stop offset="0" stop-color="#38c7ff"/>
      <stop offset="0.54" stop-color="#246bff"/>
      <stop offset="1" stop-color="#0b2f83"/>
    </linearGradient>
    <linearGradient id="window" x1="246" y1="248" x2="778" y2="679" gradientUnits="userSpaceOnUse">
      <stop offset="0" stop-color="#ffffff" stop-opacity="0.32"/>
      <stop offset="1" stop-color="#ffffff" stop-opacity="0.12"/>
    </linearGradient>
    <filter id="softShadow" x="-20%" y="-20%" width="140%" height="140%">
      <feDropShadow dx="0" dy="28" stdDeviation="42" flood-color="#00143f" flood-opacity="0.32"/>
    </filter>
  </defs>

  <rect x="72" y="72" width="880" height="880" rx="214" fill="url(#bg)" filter="url(#softShadow)"/>
  <path d="M116 188c0-39 33-72 72-72h648c39 0 72 33 72 72v34H116z" fill="#fff" opacity="0.2"/>
  <rect x="234" y="246" width="556" height="420" rx="76" fill="url(#window)" stroke="#ffffff" stroke-opacity="0.22" stroke-width="18"/>

  <rect x="214" y="730" width="596" height="132" rx="50" fill="#eaf8ff" opacity="0.94"/>
  <rect x="274" y="768" width="62" height="62" rx="18" fill="#0ea5e9"/>
  <rect x="382" y="768" width="62" height="62" rx="18" fill="#22c55e"/>
  <rect x="490" y="768" width="62" height="62" rx="18" fill="#f8fafc"/>
  <rect x="598" y="768" width="62" height="62" rx="18" fill="#f59e0b"/>
  <rect x="706" y="768" width="62" height="62" rx="18" fill="#111827" opacity="0.84"/>

  <path d="M478 318h68v218h-68z" fill="#ffffff"/>
  <path d="M512 626 348 462h104v-32h120v32h104z" fill="#ffffff"/>
  <rect x="350" y="632" width="324" height="68" rx="34" fill="#ffffff"/>
</svg>

